# Rhino

v 2.5208301544189453 3.5243055820465088 -0.45801758766174316
v 2.5208301544189453 3.5243055820465088 2.2851824760437012
v 1.2000302076339722 3.5243055820465088 -0.45801758766174316
v 1.2000302076339722 3.5243055820465088 2.2851824760437012
v 1.2000302076339722 3.5243055820465088 -0.45801758766174316
v 1.2000302076339722 3.5243055820465088 2.2851824760437012
v 1.2000302076339722 2.2035055160522461 -0.45801758766174316
v 1.2000302076339722 2.2035055160522461 2.2851824760437012
v 1.2000302076339722 2.2035055160522461 -0.45801758766174316
v 1.2000302076339722 2.2035055160522461 2.2851824760437012
v 2.5208301544189453 2.2035055160522461 -0.45801758766174316
v 2.5208301544189453 2.2035055160522461 2.2851824760437012
v 2.5208301544189453 2.2035055160522461 -0.45801758766174316
v 2.5208301544189453 2.2035055160522461 2.2851824760437012
v 2.5208301544189453 3.5243055820465088 -0.45801758766174316
v 2.5208301544189453 3.5243055820465088 2.2851824760437012
v 2.5208301544189453 3.5243055820465088 -0.45801758766174316
v 1.2000302076339722 3.5243055820465088 -0.45801758766174316
v 1.2000302076339722 2.2035055160522461 -0.45801758766174316
v 2.5208301544189453 2.2035055160522461 -0.45801758766174316
v 2.5208301544189453 3.5243055820465088 2.2851824760437012
v 1.2000302076339722 3.5243055820465088 2.2851824760437012
v 1.2000302076339722 2.2035055160522461 2.2851824760437012
v 2.5208301544189453 2.2035055160522461 2.2851824760437012
vt 0 0
vt 0 0.75471639633178711
vt 0.22771407663822174 0
vt 0.22771407663822174 0.75471639633178711
vt 0.22771407663822174 0
vt 0.22771407663822174 0.75471639633178711
vt 0.5 0
vt 0.5 0.75471639633178711
vt 0.5 0
vt 0.5 0.75471639633178711
vt 0.72771406173706055 0
vt 0.72771406173706055 0.75471639633178711
vt 0.72771406173706055 0
vt 0.72771406173706055 0.75471639633178711
vt 1 0
vt 1 0.75471639633178711
vt 0.25 1
vt 0.25 0.75471717119216919
vt 0 0.75471717119216919
vt 0 1
vt 1 0.75471717119216919
vt 1 1
vt 0.75 1
vt 0.75 0.75471717119216919
vn 0 1 0
vn 0 1 0
vn 0 1 0
vn 0 1 0
vn -1 0 0
vn -1 0 0
vn -1 0 0
vn -1 0 0
vn 0 -1 0
vn 0 -1 0
vn 0 -1 0
vn 0 -1 0
vn 1 0 0
vn 1 0 0
vn 1 0 0
vn 1 0 0
vn 0 0 -1
vn 0 0 -1
vn 0 0 -1
vn 0 0 -1
vn 0 0 1
vn 0 0 1
vn 0 0 1
vn 0 0 1
f 18/18/18 17/17/17 20/20/20 19/19/19
f 24/24/24 21/21/21 22/22/22 23/23/23
f 1/1/1 3/3/3 4/4/4 2/2/2
f 5/5/5 7/7/7 8/8/8 6/6/6
f 9/9/9 11/11/11 12/12/12 10/10/10
f 13/13/13 15/15/15 16/16/16 14/14/14
